<svg id="ORCID_iD" xmlns="http://www.w3.org/2000/svg" width="34" height="34" viewBox="0 0 34 34">
  <path id="Caminho_252" data-name="Caminho 252" d="M34,17A17,17,0,1,1,17,0,17,17,0,0,1,34,17Z" fill="#a6ce39"/>
  <g id="Grupo_28" data-name="Grupo 28" transform="translate(9.098 6.202)">
    <path id="Caminho_253" data-name="Caminho 253" d="M72.945,93.324H70.9V79.1h2.045V93.324Z" transform="translate(-70.581 -74.797)" fill="#fff"/>
    <path id="Caminho_254" data-name="Caminho 254" d="M108.9,79.1h5.525c5.259,0,7.57,3.759,7.57,7.119a7.188,7.188,0,0,1-7.544,7.119H108.9Zm2.045,12.391H114.2c4.635,0,5.7-3.52,5.7-5.273,0-2.855-1.82-5.273-5.8-5.273h-3.148Z" transform="translate(-103.534 -74.797)" fill="#fff"/>
    <path id="Caminho_255" data-name="Caminho 255" d="M71.183,48.041A1.341,1.341,0,1,1,69.841,46.7,1.346,1.346,0,0,1,71.183,48.041Z" transform="translate(-68.5 -46.7)" fill="#fff"/>
  </g>
</svg>
