<svg xmlns="http://www.w3.org/2000/svg" xmlns:xlink="http://www.w3.org/1999/xlink" width="99.072" height="92.042" viewBox="0 0 99.072 92.042">
  <defs>
    <clipPath id="clip-path">
      <rect id="Retângulo_865" data-name="Retângulo 865" width="99.072" height="92.042" fill="none"/>
    </clipPath>
  </defs>
  <g id="Grupo_22" data-name="Grupo 22" transform="translate(32.943 13.521)">
    <g id="Grupo_17" data-name="Grupo 17" transform="translate(-32.943 -13.521)" clip-path="url(#clip-path)">
      <path id="Caminho_242" data-name="Caminho 242" d="M346.885,252.87h0a8.242,8.242,0,0,1-8.25,8.25v0h0v0a8.242,8.242,0,0,1-8.25-8.25h0a8.242,8.242,0,0,1,8.25-8.251v0h0v0a8.242,8.242,0,0,1,8.251,8.25h0Z" transform="translate(-289.307 -214.207)" fill="#fff" fill-rule="evenodd"/>
      <path id="Caminho_243" data-name="Caminho 243" d="M93.475,42.979h0l0,0a14.169,14.169,0,0,0,1.414-3.418c.9-3.437.619-8.087-3.944-12.716l-.015-.015a23.91,23.91,0,0,0-2.8-2.42A26.745,26.745,0,0,0,84.962,22.4c-5.783-3.131-12.99-4.465-20.5-4.327h-.032c-.132,0-.5.021-1.051.052-.5.028-1.177.071-2,.131-2.015.147-4.684.353-6.663.545a92.211,92.211,0,0,1,9.371,2.168A59.415,59.415,0,0,1,76.391,26.14q.937.52,1.794,1.042c6.906,4.206,10.359,8.689,11.788,12.727a13.728,13.728,0,0,1,.658,6.917c.08-.085.159-.171.238-.259a21.489,21.489,0,0,0,2.608-3.588ZM31.957,61.153l.03.006q1.6.326,3.392.555,1.81.231,3.719.35a89.882,89.882,0,0,0,23.312-1.947h.006q1.263-.26,2.38-.524c.725-.171,1.509-.369,2.342-.591l.473-.128c-1.3.085-2.55.137-3.723.174h-.014c-2.065.065-4.2.044-6.355-.044s-4.337-.244-6.521-.451a187.014,187.014,0,0,1-27.228-4.789q-2.025-.53-3.817-1.062-.728-.217-1.439-.443a12.94,12.94,0,0,0,.9,1.608c2.025,3.065,5.778,5.9,12.537,7.284M87.3,43.5a8.376,8.376,0,0,1-.892,4.729,11.691,11.691,0,0,1-2.978,3.532,30.445,30.445,0,0,1-5.063,1.578c-1.79.4-3.548.679-5.24.912a98.516,98.516,0,0,1-12.693.925,101.067,101.067,0,0,1-10.844-.5c-5.471-.545-10.028-1.428-13.531-2.107-.662-.128-1.282-.248-2.022-.387l-.008,0h0v0c-4-.748-7.326-1.465-10.164-2.2a63.926,63.926,0,0,1-6.569-2.026,15.19,15.19,0,0,1,.067-4.159c.037-.229.074-.423.108-.584s.07-.3.1-.42h0v0a35.666,35.666,0,0,1,8.866-14.613q1.174-1.224,2.4-2.344c.8-.73,1.641-1.45,2.513-2.155h0c.952-.769,1.922-1.513,2.9-2.227q.406-.3.58-.421l.337-.241a91.363,91.363,0,0,1,9.559.46l.294.026h0a96.494,96.494,0,0,1,20.71,4.011c.812.261,1.511.5,2.094.716.56.2,1.035.39,1.407.542h0c8.641,3.532,14.035,8.577,16.522,12.8a13.679,13.679,0,0,1,1.088,2.271,7.67,7.67,0,0,1,.449,1.881ZM28.561,21.055c-1.141.08-2.3.174-3.465.288h0c-.751.073-1.547.188-2.374.343s-1.7.353-2.57.587c-4.5,1.2-9.373,3.4-12.631,6.319a12.865,12.865,0,0,0-2.311,2.737,8.46,8.46,0,0,0-1.382,4.358,7.77,7.77,0,0,0,2,5.069,16.842,16.842,0,0,0,3.615,3.163c.819.551,1.665,1.079,2.577,1.594v0c.445.251.9.5,1.367.732,0-.5.029-1,.07-1.483a21.6,21.6,0,0,1,1.625-6.494h0A33.088,33.088,0,0,1,16.932,34.6c.692-1.189,1.448-2.338,2.242-3.438a60.7,60.7,0,0,1,9.387-10.1m44.1,40.265a84.833,84.833,0,0,1-12.631,3.24,100.477,100.477,0,0,1-17.149,1.479h-.1c-1.424,0-2.769-.042-4.035-.129s-2.5-.218-3.674-.381c-5.995-.835-10.277-2.53-12.284-3.765l0,0q-1.161-.715-2.158-1.477a22.328,22.328,0,0,1-1.833-1.556,16.87,16.87,0,0,1-4.912-8.14,31.183,31.183,0,0,1-8.709-4.96A14.857,14.857,0,0,1,.5,38.823h0a10.069,10.069,0,0,1-.485-2.615A10.217,10.217,0,0,1,.2,33.7c.812-4.073,3.964-7.566,7.064-9.8h0c.455-.329.977-.673,1.555-1.023.559-.339,1.2-.7,1.9-1.066A43.126,43.126,0,0,1,24.22,17.4c1.783-.244,3.546-.412,5.277-.518,1.619-.1,3.236-.145,4.837-.15q2.985-1.991,6.043-3.7c2.114-1.186,4.24-2.272,6.359-3.266A111.789,111.789,0,0,1,76.356.732a2.471,2.471,0,0,1,.279-.227A3.022,3.022,0,0,1,78.327,0h0V0a2.643,2.643,0,0,1,1.921.831,2.889,2.889,0,0,1,.79,2h0a2.887,2.887,0,0,1-.79,2,2.647,2.647,0,0,1-1.92.831v0h0v0a2.608,2.608,0,0,1-1.134-.257,2.676,2.676,0,0,1-.8-.589q-2.481.3-5.02.776-2.835.526-5.6,1.228A95.037,95.037,0,0,0,41.1,16.95q1.03.072,2,.16c1.5.136,2.973.307,4.393.5a6.129,6.129,0,0,1,.825-.493,11.191,11.191,0,0,1,1.45-.591,40.293,40.293,0,0,1,8-1.483,80.953,80.953,0,0,1,11.5-.447A44.654,44.654,0,0,1,78.883,16.1l.015,0h0a39.909,39.909,0,0,1,6.2,2.175A30.358,30.358,0,0,1,90,21.028c7.437,5.178,9.38,12.1,9.033,16.322v.005a20.311,20.311,0,0,1-.306,2.195,19.593,19.593,0,0,1-.588,2.289A20.176,20.176,0,0,1,88.761,53.1c-.578.342-1.134.65-1.672.929q-.75.389-1.582.769c-.434.341-.908.686-1.417,1.034q-.79.54-1.651,1.056a51.979,51.979,0,0,1-9.777,4.433" transform="translate(0)" fill="#fff" fill-rule="evenodd"/>
      <path id="Caminho_244" data-name="Caminho 244" d="M50.045,613.442c-2.417,1.159-3.9,1.85-6.093,1.85-3.5,0-5.994-2.146-5.994-5.156,0-2.984,2.516-5.106,6.092-5.106a11.74,11.74,0,0,1,5.8,1.727v-3.75a11.859,11.859,0,0,0-6.093-1.48c-6.438,0-10.114,4.193-10.114,8.683,0,4.342,3.256,8.585,9.793,8.585a13.059,13.059,0,0,0,6.611-1.677Z" transform="translate(-29.459 -526.752)" fill="#fff" fill-rule="evenodd"/>
      <path id="Caminho_245" data-name="Caminho 245" d="M213.731,605.1h-4.86l-6.783,16.823h4.44l1.258-3.33h7.524l1.381,3.33h4.514Zm.345,10.558H208.9l2.467-6.537Z" transform="translate(-176.967 -529.882)" fill="#fff" fill-rule="evenodd"/>
      <path id="Caminho_246" data-name="Caminho 246" d="M387.117,605.1v16.823h4.193v-6.759h3.33c3.872,0,5.55-2.713,5.55-5.081,0-2.294-1.727-4.983-5.575-4.983Zm4.193,3.083h1.48c2.27,0,3.083.518,3.083,1.949,0,1.258-.691,1.949-2.615,1.949H391.31Z" transform="translate(-338.995 -529.882)" fill="#fff" fill-rule="evenodd"/>
      <path id="Caminho_247" data-name="Caminho 247" d="M538.238,618.841h-8.214V614.8h7.672v-3.083h-7.672v-3.528h8.042V605.1H525.83v16.823h12.407Z" transform="translate(-460.465 -529.882)" fill="#fff" fill-rule="evenodd"/>
      <path id="Caminho_248" data-name="Caminho 248" d="M671.878,602.834a13.771,13.771,0,0,0-5.7-1.307c-3.9,0-6.413,1.924-6.413,4.835,0,6.043,8.56,5.032,8.56,7.8,0,.986-.863,1.554-2.467,1.554-1.85,0-3.33-.567-5.747-2.171v3.626a11.412,11.412,0,0,0,6.068,1.628c3.749,0,6.463-1.875,6.463-5.107,0-5.871-8.56-5.156-8.56-7.7,0-.839.962-1.381,2.467-1.381a13.038,13.038,0,0,1,5.328,1.5Z" transform="translate(-577.752 -526.752)" fill="#fff" fill-rule="evenodd"/>
    </g>
  </g>
</svg>
